<?xml version="1.0" encoding="UTF-8" standalone="no"?>
<!-- Created with Inkscape (http://www.inkscape.org/) -->

<svg
   xmlns:dc="http://purl.org/dc/elements/1.1/"
   xmlns:cc="http://creativecommons.org/ns#"
   xmlns:rdf="http://www.w3.org/1999/02/22-rdf-syntax-ns#"
   xmlns:svg="http://www.w3.org/2000/svg"
   xmlns="http://www.w3.org/2000/svg"
   xmlns:sodipodi="http://sodipodi.sourceforge.net/DTD/sodipodi-0.dtd"
   xmlns:inkscape="http://www.inkscape.org/namespaces/inkscape"
   width="210mm"
   height="297mm"
   viewBox="0 0 744.09448819 1052.3622047"
   id="svg2"
   version="1.1"
   inkscape:version="0.91 r13725"
   sodipodi:docname="landenlabs.svg">
  <defs
     id="defs4" />
  <sodipodi:namedview
     id="base"
     pagecolor="#ffffff"
     bordercolor="#666666"
     borderopacity="1.0"
     inkscape:pageopacity="0.0"
     inkscape:pageshadow="2"
     inkscape:zoom="0.49497475"
     inkscape:cx="-423.98263"
     inkscape:cy="520"
     inkscape:document-units="px"
     inkscape:current-layer="layer1"
     showgrid="false"
     inkscape:window-width="1920"
     inkscape:window-height="1138"
     inkscape:window-x="1912"
     inkscape:window-y="-8"
     inkscape:window-maximized="1" />
  <metadata
     id="metadata7">
    <rdf:RDF>
      <cc:Work
         rdf:about="">
        <dc:format>image/svg+xml</dc:format>
        <dc:type
           rdf:resource="http://purl.org/dc/dcmitype/StillImage" />
        <dc:title></dc:title>
      </cc:Work>
    </rdf:RDF>
  </metadata>
  <g
     inkscape:label="Layer 1"
     inkscape:groupmode="layer"
     id="layer1">
    <rect
       style="fill:none"
       id="rect3344"
       width="80.000015"
       height="811.42859"
       x="54.285713"
       y="89.505058" />
    <rect
       style="fill:none"
       id="rect3348"
       width="82.857155"
       height="908.57141"
       x="25.714285"
       y="72.362206" />
    <rect
       style="fill:#800000"
       id="rect3350"
       width="120"
       height="928.57141"
       x="57.142857"
       y="58.076492" />
    <path
       style="fill:#800000"
       d="M 208.57227 840.93359 L 208.57227 983.79102 L 665.71484 983.79102 L 665.71484 840.93359 L 208.57227 840.93359 z M 276.78125 880.63672 L 644.47656 880.63672 L 644.47656 939.22461 L 276.78125 939.22461 L 276.78125 880.63672 z "
       id="rect3352" />
    <path
       style="fill:#ffcc00"
       d="M 241.42773 58.076172 A 332.85715 387.14285 0 0 0 214.28516 59.554688 L 214.28516 830.7832 A 332.85715 387.14285 0 0 0 241.42773 832.36328 A 332.85715 387.14285 0 0 0 279.56836 829.56641 L 279.56836 61.105469 A 332.85715 387.14285 0 0 0 241.42773 58.076172 z M 330.99805 72.388672 L 330.99805 817.68555 A 332.85715 387.14285 0 0 0 574.28516 445.21875 A 332.85715 387.14285 0 0 0 330.99805 72.388672 z "
       id="path3354" />
    <rect
       style="fill:none"
       id="rect3401"
       width="367.6955"
       height="58.588848"
       x="276.7818"
       y="880.63623" />
    <rect
       y="60.587002"
       x="279.56924"
       height="771.77521"
       width="51.42857"
       id="rect3403"
       style="fill:none" />
  </g>
</svg>
